<?xml version="1.0" encoding="utf-8"?>
<!-- Generator: Adobe Illustrator 18.1.1, SVG Export Plug-In . SVG Version: 6.00 Build 0)  -->
<svg version="1.1" xmlns="http://www.w3.org/2000/svg" xmlns:xlink="http://www.w3.org/1999/xlink" x="0px" y="0px"
	 viewBox="0 0 300 300" enable-background="new 0 0 300 300" xml:space="preserve">
<g id="Layer_3" display="none">
	<g id="Layer_4">
	</g>
</g>
<g id="Layer_2" display="none">
	<path display="inline" fill="#397338" d="M90.5,237c2,2.6,5.1,7.5,5.5,14c0.3,4.2-0.6,7.5-1.5,10.5c-3,10.7-8.2,14.1-6.5,17
		c1.1,1.8,5,1.9,13,2c6.7,0.1,7.3-0.7,7.5-1c1.7-2.7-5.4-6.8-7-15.5c-1.2-6.4,1.9-8.3,1.5-15c-0.2-4.1-1.8-10.2-8.5-17.5"/>
	<path display="inline" fill="#88D4E8" d="M84,216c-4.1,4.4-11.7-1.4-13,4.5c-2.2,10.2-1.9,24.4,3,26c3.8,1.3,6.2-6.2,16-9
		c5.6-1.6,7.8,0,17,0.5c10.8,0.5,22.6,1.1,26.5-4.5c4.5-6.4-8.7-8-17.8-15.5C102.7,207.2,94,205.3,84,216z"/>
	<polygon display="inline" points="72.5,85.6 76.8,69.8 76.1,44.1 82,50.7 84,54.7 89,57.9 94.9,53.7 98.8,47.1 101.8,41.2 
		104.4,53.3 105.4,71.1 111,85.7 	"/>
	<path display="inline" stroke="#000000" stroke-width="0.5087" stroke-miterlimit="10" d="M53,38.7c0,0-11.3,14.5-14.7,12.2
		c-2-1.3-1.3-6.9,1.4-10.4"/>
	<path display="inline" stroke="#000000" stroke-width="0.4117" stroke-miterlimit="10" d="M42.8,43.8c0.3-0.2,10.9,0.9,10.9,0.9
		s-11.4,9.4-13.8,7C38.6,50.4,40.1,46.1,42.8,43.8z"/>
	<path display="inline" stroke="#000000" stroke-width="0.5087" stroke-miterlimit="10" d="M59.8,71.9c0,0-7.9,4.4-9.5,1.3
		c-1.6-3-0.4-12.9,1.6-13.1C53.8,59.7,59.8,71.9,59.8,71.9"/>
	<path display="inline" stroke="#000000" stroke-width="0.5087" stroke-miterlimit="10" d="M22.5,82.4c0,0,0.2-3.4,2.7-8.1
		c1.6-3,0.6-9.9,1.5-13.9c1.5-6.3,4.3-14,12.2-13.7c6.7,0.3,11.7,5.1,14.6,11.2c5,10.8-3.9,24.6-3.9,24.6"/>
	<path display="inline" fill="#FFFFFF" stroke="#000000" stroke-width="0.2862" stroke-miterlimit="10" d="M43.5,61.3
		c0,0,0.2,4.1,0.9,5.1c0.8,1.1,2.2,1,2.4,1c1.1-0.1,2.3-0.8,2.6-2C49.8,63.9,43.5,61.3,43.5,61.3z"/>
	<path display="inline" stroke="#000000" stroke-width="0.7871" stroke-miterlimit="10" d="M34.3,71.3l-15.9,2.9
		c0,0,9.1,7.3,15.6,6.5c1.8-0.2,7.9-1,10.3-5.8"/>
	<path display="inline" d="M134.7,86.7l1.3-9.5l-3.3-15.8l-6.4-5.7c0,0-4.9-6.5-6.9-9.7c-0.9-1.4-4.8-5.1-4.8-5.1l3.2,0.8l3.5,3.1
		l3.5,5.8l4,2.7l-2.1-5.1l-1.2-4.8l-1.9-3.2c0,0-4.6-2.6-4.6-2.8c0.1-0.2,4.9,0.3,4.9,0.3s-2-4.9-1.9-5c0.1-0.1,3.6,5.5,3.6,5.5
		l1.3,4.4l3,5.5l4.1,4.4l-0.4-7.1l-0.7-7.9l0.8-9.7l0.1-5.8l1.5,3.1l-0.1,6.5l0.3,4.1l2.1-4.2l2.1-2.6l1.5-2.2l-0.2,2.6l3.2-0.6
		l2,0.2l-1.8,1.3l-2.3,0.4l-2.8,1.3l-1.1,4.5l0.1,5.2l1.3,4.7l0.4,5.3l0.2,3.3l0.5,4l3.3-4.4l3.4-1.5l2.4-1.8l1.1-3.4l0.2-1.3
		l0.3-2.1l1.8,2.1l-0.9,2.2l-0.3,1.9l2.6-0.6l-2.9,3l-3.5,1.9l-3.1,3.8l-3.6,4.6l3.1,11.5l3.2,6.3l1,5.4L134.7,86.7z"/>
	<circle display="inline" fill="#78C691" cx="122.3" cy="262.7" r="4"/>
	<path display="inline" fill="#275429" d="M93,200.3c-19,4-21.4,11.6-22.7,17.5c-2.2,10.2-1.9,24.4,3,26c3.8,1.3,6.2-6.2,16-9
		c5.6-1.6,7.8,0,17,0.5c10.8,0.5,22.6,1.1,26.5-4.5c4.5-6.4-9.4-7.6-18.5-15.2C101.3,204.9,101.5,198.5,93,200.3z"/>
	<polygon display="inline" points="155,87 153.1,77.1 161,76.9 168.9,71.2 173,76.4 180.5,77 182.5,80.5 177.3,87.1 	"/>
	<path display="inline" d="M201.4,85.9l1.8-10.8l-2.4-12.7c0,0,1.5-3.6,6.9-15.4c0.6-1.2,2.9-6.8,2.9-6.8l0.6-4.9l4.7-11.8l-4.6,7.2
		l-3.5,8.8l-0.6-8.7l4.3-11l-6.5,7.8l-1.1,6.7l-4.3-4.4l-6.3-5.9l2.1,6.6l4.5,4.5l3.5,6.3l-3,9.8l-3.9,4.5l-0.3,19.9l-5.4,10.5"/>
	<path display="inline" d="M218.1,37.9c0,0-0.8,9.7-1.3,23.2c-0.6,16.2-1.8,25.4-1.8,25.4l22.2-0.4l-2.9-54.3L218.1,37.9z"/>
	<g id="XMLID_1_" display="inline">
		<g>
			<circle fill="#D6432F" cx="79.8" cy="108.2" r="9.8"/>
		</g>
		<g>
		</g>
	</g>
	<path display="inline" d="M126,129.5c0,0-7.6-0.5-10,2.5c-1.8,2.3-1.6,7.8,1.5,9c8,3,14-1.5,14-1.5L127,113c0,0,5.9-0.1,10-1.5
		c4.2-1.5,2-5.5,2-5.5l-16,5.5L126,129.5z"/>
	<path display="inline" fill="#EE2424" stroke="#F9A880" stroke-width="2" stroke-miterlimit="10" d="M93.8,103c0,2.3,0,4.7,0,7l0,0
		"/>
	<path display="inline" fill="none" stroke="#F9A880" stroke-width="3" stroke-miterlimit="10" d="M90,120c-1.9,0.4-3.8,0.8-5.8,1.2
		"/>
	<path display="inline" fill="#EE2424" stroke="#F9A880" stroke-width="2" stroke-miterlimit="10" d="M92,113
		c0.2,0.8,0.3,1.7,0.5,2.5"/>
	<path display="inline" fill="#EE2424" stroke="#F9A880" stroke-miterlimit="10" d="M74.8,120c-2-0.7-4-1.3-6-2"/>
	<path display="inline" fill="#D6432F" d="M88,124"/>
	<path display="inline" fill="#EE2424" stroke="#F9A880" stroke-width="2" stroke-miterlimit="10" d="M69.5,118"/>
	<path display="inline" fill="#EE2424" stroke="#F9A880" stroke-width="3" stroke-miterlimit="10" d="M67,115c-0.7-2-1.3-4-2-6"/>
	<path display="inline" fill="#EE2424" stroke="#F9A880" stroke-width="2" stroke-miterlimit="10" d="M66.2,105
		c1.4-2.1,2.8-4.2,4.2-6.2"/>
	<path display="inline" fill="#EE2424" stroke="#F9A880" stroke-miterlimit="10" d="M80.2,120.5c-0.8,1.1-1.7,2.2-2.5,3.2"/>
	<path display="inline" fill="none" stroke="#F9A880" stroke-miterlimit="10" d="M64.2,121"/>
	<path display="inline" fill="none" stroke="#F9A880" stroke-miterlimit="10" d="M61.8,115.8"/>
	<path display="inline" fill="#EE2424" stroke="#F9A880" stroke-width="2" stroke-miterlimit="10" d="M80.2,95.2
		c1.4,0.2,2.8,0.3,4.2,0.5"/>
	<path display="inline" fill="#EE2424" stroke="#F9A880" stroke-width="3" stroke-miterlimit="10" d="M71.8,95.5
		c1.7-0.5,3.3-1,5-1.5"/>
	<path display="inline" fill="#EE2424" stroke="#F9A880" stroke-miterlimit="10" d="M88.8,95c0.7,1.6,1.3,3.2,2,4.8"/>
	<path display="inline" fill="#D6432F" d="M220.3,107c-2.9-1.3-12.2,7.1-14.7,18c-3.1,13.5,5.5,25.2,10,31.3
		c4.1,5.5,7.9,10.7,13.3,10.7c8.4-0.1,13.5-12.7,14-14c2.6-6.4,4.4-17.9-1.3-22.7c-5.7-4.7-13.7,1.4-18.7-3.3
		C217.1,121.5,223.6,108.5,220.3,107z"/>
	<path display="inline" fill="#BE882C" d="M232.1,119c1.7-1,7.1,5.1,8.5,13c1.8,9.8-3.2,18.2-5.8,22.6c-2.4,4-4.6,7.8-7.8,7.7
		c-4.9-0.1-7.9-9.2-8.2-10.1c-1.5-4.7-2.5-12.9,0.8-16.4c3.3-3.4,8,1,10.9-2.4C234,129.4,230.2,120,232.1,119z"/>
</g>
<g id="Layer_5">
	<path d="M272.3,193.1c0.1,1.8,0.8,14.2-8.8,23.3c-10.1,9.6-23.1,7.7-25.3,7.3c-17.7-2.6-25.5-19.5-26-20.7"/>
	<path fill="#44413F" d="M255.7,143.2c-5.7,1.2-13.9,12.2-13.9,12.2s8.1,11.2,7,17.4c-1.8,9.6-25.8,9.7-26.1,15.7
		c-0.3,4.6,13.6,9.8,26.1,12.2c4.1,0.8,38.9-5.2,38.9-5.2S276.5,139,255.7,143.2z"/>
	<path fill="#706B69" d="M240.7,143.7c-5.7,1.2-3.5,0.9-4.6,7.1c-1.8,9.6-12.6,25.5,0,27.9c4.1,0.8,29.9,3.8,35.1-4.5
		C278.2,162.9,261.4,139.4,240.7,143.7z"/>
	<path d="M126.7,300c0.1-1.8,1.1-14.2,10.2-21.8c9.5-8,20-4.1,21.8-3.5c14.3,5.2,19,24,19.3,25.3"/>
	<path fill="#B3523B" d="M159.9,7.7c0,0-14.6,28.8-7.1,45.4c9.8,21.8,39,33.4,49.5,24.7c8.8-7.3,4.1-28.3-1.8-40.4
		C192.1,20.1,159.9,7.7,159.9,7.7z"/>
	<path fill="#B3523B" d="M46.1,204.6c0,0-6.9,26.3,2.3,38.2c12.1,15.6,38.4,19,45.6,9.8c6-7.7-1.7-23.7-8.8-32.3
		C75.1,208,46.1,204.6,46.1,204.6z"/>
	<path fill="#44413F" d="M162.2,300c0.1-1.8,0.9-14.2,8.6-21.8c8-8,17-4.1,18.5-3.5c12.1,5.2,15.8,24,16,25.3"/>
	<ellipse transform="matrix(0.9502 -0.3117 0.3117 0.9502 -32.672 68.8073)" cx="198.9" cy="136.6" rx="22.6" ry="33.7"/>
	<path fill="#F1BB90" d="M103.9,173.1c-13.3-4.8-15.7,40.1-80.1,22.1c-5.9-1.6,10.5,66.2,84.1,12.1
		C118.6,199.4,113,176.4,103.9,173.1z"/>
	<path fill="#B3523B" d="M20,245.1c-6.1,0.1,57.4,52.3,83.1-35.4C106.9,197,54.3,244.5,20,245.1z"/>
	<path fill="#DAA87E" d="M246.7,110.4C230,85.7,204.6,77.5,198,75.6c-35.3-10.3-76.6,1.7-97.6,27.9c-23.3,29.1-8,69-31.4,85.9
		C44.7,207,11,212,11,212s0.6,19,12.2,27.3c19.8,14.3,47-8.1,47-8.1L40,266c0,0,27,16.2,39.5,18.6c29.8,5.7,68.9,6.6,77.5,4.9
		c29.9-5.7,46.6-16.7,71.1-42.1C260.8,213.7,274.9,151.9,246.7,110.4z M217.1,179.8c-18.6,11.9-46.1,1.1-55.2-8.4
		c-33.7-35.4-13-62.9,2.3-72.6c12.6-7.9,38.9-13.1,58.1,13.1C240.2,136.2,228.8,172.3,217.1,179.8z"/>
	<path fill="#86191A" d="M218.6,186.4c-7.4,1.2-16.8,11-10.2,18c5.6,5.9,11.4,14.1,21.1-5C232.2,194,222.4,185.8,218.6,186.4z"/>
	<path fill="#86191A" d="M131.5,172.8c0,0-13.8,40.7-41.2,48.8c-21.1,6.2-40.6,2.3-40.6,2.3s9.5,25.3,26.7,34.8
		c29.7,16.5,68.7,15.2,98.1-32.5C197.4,189.1,131.5,172.8,131.5,172.8z"/>
	<path fill="#AD2329" d="M133.8,178.1c0,0-2.6,36.6-25.3,43.3c-17.4,5.1-43.2,9-29,16.8c24.6,13.6,54.6,15,79-24.4
		C177.4,183.1,133.8,178.1,133.8,178.1z"/>
	<path d="M160.8,82c-22.2,5.5-35.8,42.5-33,45.2c1.8,1.8,5.9-23.6,26-32.4"/>
	<path fill="#AD2329" d="M223.3,195.5c1.6-2.8-4-7-6.1-6.7c-4.2,0.6-9.4,5.7-5.7,9.3"/>
	<text transform="matrix(1 0 0 1 -15 -89)" display="none" font-family="'MyriadPro-Regular'" font-size="12">128</text>
</g>
</svg>
